{"title":"BangBros Alyssa Branch 720p","uid":9021992,"size":2017099027,"categoryP":"porn","categoryS":"movie_clips","magnet":"?xt=urn:btih:b1f6428658a510d4021c66fd7b31638d62931c77&amp;dn=BangBros+Alyssa+Branch+720p&amp;tr=udp%3A%2F%2Ftracker.openbittorrent.com%3A80&amp;tr=udp%3A%2F%2Fopen.demonii.com%3A1337&amp;tr=udp%3A%2F%2Ftracker.coppersurfer.tk%3A6969&amp;tr=udp%3A%2F%2Fexodus.desync.com%3A6969","seeders":0,"leechers":1,"uploader":null,"files":2,"time":1381286450,"description":" &lt;a href=&quot;http://www.hostpornpics.net/pornmg/share.php?id=B6FE_5254A41B&quot; rel=&quot;nofollow&quot; target=&quot;_NEW&quot;&gt;http://www.hostpornpics.net/pornmg/share.php?id=B6FE_5254A41B&lt;/a&gt;\n\n\n\nCATEGORIES....: Young Adults, Amateur Girls, Hardcore Sex\n\n\nDESCRIPTION...: In this weeks BBE we have the beautifl Alyssa Branch and man this girl is truly stunning\nevery part on this womans body has got it going on.My friend mike will be the lucky guy who\ngets to take down this goddess but he found himself with a woman with her looks who likes\nto fuck just as much or more than him so you guys know that its gonna be an interesting\njust based on that but it doesnt stop there this girl SQUIRTS! yes she does. you guys are\nin for a real treat! Stay tuned!\n\nFormat : MPEG-4\nFormat profile : Base Media\nCodec ID : isom\nFile size : 1.88 GiB\nDuration : 1h 27mn\nOverall bit rate mode : Variable\nOverall bit rate : 3 059 Kbps\nEncoded date : UTC 2013-10-03 21:35:47\nTagged date : UTC 2013-10-03 21:35:47\nWriting application : Lavf53.32.100\n\nVideo\nID : 1\nFormat : AVC\nFormat/Info : Advanced Video Codec\nFormat profile : &lt;a class=&quot;__cf_email__&quot; href=&quot;/cdn-cgi/l/email-protection&quot; data-cfemail=&quot;e1ac80888fa1add5cfd1&quot;&gt;[email&amp;#160;protected]&lt;/a&gt;&lt;script cf-hash='f9e31' type=&quot;text/javascript&quot;&gt;\n/* &lt;![CDATA[ */!function(){try{var t=&quot;currentScript&quot;in document?document.currentScript:function(){for(var t=document.getElementsByTagName(&quot;script&quot;),e=t.length;e--;)if(t[e].getAttribute(&quot;cf-hash&quot;))return t[e]}();if(t&amp;&amp;t.previousSibling){var e,r,n,i,c=t.previousSibling,a=c.getAttribute(&quot;data-cfemail&quot;);if(a){for(e=&quot;&quot;,r=parseInt(a.substr(0,2),16),n=2;a.length-n;n+=2)i=parseInt(a.substr(n,2),16)^r,e+=String.fromCharCode(i);e=document.createTextNode(e),c.parentNode.replaceChild(e,c)}}}catch(u){}}();/* ]]&gt; */&lt;/script&gt;\nFormat settings, CABAC : Yes\nFormat settings, ReFrames : 6 frames\nCodec ID : avc1\nCodec ID/Info : Advanced Video Coding\nDuration : 1h 27mn\nBit rate : 3 000 Kbps\nWidth : 1 280 pixels\nHeight : 720 pixels\nDisplay aspect ratio : 16:9\nFrame rate mode : Constant\nFrame rate : 29.970 fps\nColor space : YUV\nChroma subsampling : 4:2:0\nBit depth : 8 bits\nScan type : Progressive\nBits/(Pixel*Frame) : 0.109\nStream size : 1.83 GiB (97%)\nWriting library : x264 core 124 r2019+178 69a0443\n\nAudio\nID : 2\nFormat : AAC\nFormat/Info : Advanced Audio Codec\nFormat profile : LC\nCodec ID : 40\nDuration : 1h 27mn\nBit rate mode : Variable\nBit rate : 69.0 Kbps\nMaximum bit rate : 96.0 Kbps\nChannel(s) : 2 channels\nChannel positions : Front: L R\nSampling rate : 44.1 KHz\nCompression mode : Lossy\nDelay relative to video : 67ms\nStream size : 43.4 MiB (2%)\nLanguage : English\nEncoded date : UTC 2013-10-03 21:35:47\nTagged date : UTC 2013-10-03 21:35:47","torrent":{"xt":"urn:btih:b1f6428658a510d4021c66fd7b31638d62931c77","amp;dn":"BangBros+Alyssa+Branch+720p","amp;tr":["udp%3A%2F%2Ftracker.openbittorrent.com%3A80","udp%3A%2F%2Fopen.demonii.com%3A1337","udp%3A%2F%2Ftracker.coppersurfer.tk%3A6969","udp%3A%2F%2Fexodus.desync.com%3A6969"],"infoHash":"b1f6428658a510d4021c66fd7b31638d62931c77","infoHashBuffer":{"type":"Buffer","data":[177,246,66,134,88,165,16,212,2,28,102,253,123,49,99,141,98,147,28,119]},"announce":[],"urlList":[]}}